<?xml version="1.0" encoding="utf-8" standalone="no"?>
<!DOCTYPE svg PUBLIC "-//W3C//DTD SVG 1.1//EN"
  "http://www.w3.org/Graphics/SVG/1.1/DTD/svg11.dtd">
<svg xmlns:xlink="http://www.w3.org/1999/xlink" width="1078.56pt" height="619.2pt" viewBox="0 0 1078.56 619.2" xmlns="http://www.w3.org/2000/svg" version="1.1">
 <metadata>
  <rdf:RDF xmlns:dc="http://purl.org/dc/elements/1.1/" xmlns:cc="http://creativecommons.org/ns#" xmlns:rdf="http://www.w3.org/1999/02/22-rdf-syntax-ns#">
   <cc:Work>
    <dc:type rdf:resource="http://purl.org/dc/dcmitype/StillImage"/>
    <dc:date>2026-08-11T15:26:36.300926</dc:date>
    <dc:format>image/svg+xml</dc:format>
    <dc:creator>
     <cc:Agent>
      <dc:title>Matplotlib v3.11.1, https://matplotlib.org/</dc:title>
     </cc:Agent>
    </dc:creator>
   </cc:Work>
  </rdf:RDF>
 </metadata>
 <defs>
  <style type="text/css">*{stroke-linejoin: round; stroke-linecap: butt}</style>
 </defs>
 <g id="figure_1">
  <g id="patch_1">
   <path d="M 0 619.2 
L 1078.56 619.2 
L 1078.56 0 
L 0 0 
z
" style="fill: #ffffff"/>
  </g>
  <g id="axes_1">
   <g id="patch_2">
    <path d="M 52.902 68.315294 
L 1021.338 68.315294 
Q 1031.22 68.315294 1031.22 78.441882 
L 1031.22 564.518118 
Q 1031.22 574.644706 1021.338 574.644706 
L 52.902 574.644706 
Q 43.02 574.644706 43.02 564.518118 
L 43.02 78.441882 
Q 43.02 68.315294 52.902 68.315294 
z
" clip-path="url(#p5bd82306c9)" style="fill: #e3f2fd; opacity: 0.55; stroke-dasharray: 3.33,1.44; stroke-dashoffset: 0; stroke: #90caf9; stroke-width: 0.9; stroke-linejoin: miter"/>
   </g>
   <g id="text_1">
    <!-- cytosol -->
    <g style="fill: #78909c" transform="translate(58.8312 90.216663) scale(0.075 -0.075)">
     <defs>
      <path id="DejaVuSans-Oblique-46" d="M 3431 3366 
L 3316 2797 
Q 3109 2947 2876 3022 
Q 2644 3097 2394 3097 
Q 2119 3097 1870 3000 
Q 1622 2903 1453 2725 
Q 1184 2453 1037 2087 
Q 891 1722 891 1331 
Q 891 859 1127 628 
Q 1363 397 1844 397 
Q 2081 397 2348 469 
Q 2616 541 2906 684 
L 2797 116 
Q 2547 13 2283 -39 
Q 2019 -91 1741 -91 
Q 1044 -91 669 257 
Q 294 606 294 1253 
Q 294 1797 489 2255 
Q 684 2713 1069 3078 
Q 1331 3328 1684 3456 
Q 2038 3584 2456 3584 
Q 2700 3584 2940 3529 
Q 3181 3475 3431 3366 
z
" transform="scale(0.015625)"/>
      <path id="DejaVuSans-Oblique-5c" d="M 1588 -325 
Q 1188 -997 936 -1164 
Q 684 -1331 294 -1331 
L -159 -1331 
L -63 -850 
L 269 -850 
Q 509 -850 678 -719 
Q 847 -588 1056 -206 
L 1234 128 
L 459 3500 
L 1069 3500 
L 1650 819 
L 3256 3500 
L 3859 3500 
L 1588 -325 
z
" transform="scale(0.015625)"/>
      <path id="DejaVuSans-Oblique-57" d="M 2706 3500 
L 2619 3053 
L 1472 3053 
L 1100 1153 
Q 1081 1047 1072 975 
Q 1063 903 1063 863 
Q 1063 663 1183 572 
Q 1303 481 1569 481 
L 2150 481 
L 2053 0 
L 1503 0 
Q 991 0 739 200 
Q 488 400 488 806 
Q 488 878 497 964 
Q 506 1050 525 1153 
L 897 3053 
L 409 3053 
L 500 3500 
L 978 3500 
L 1172 4494 
L 1747 4494 
L 1556 3500 
L 2706 3500 
z
" transform="scale(0.015625)"/>
      <path id="DejaVuSans-Oblique-52" d="M 1625 -91 
Q 1009 -91 651 289 
Q 294 669 294 1325 
Q 294 1706 417 2101 
Q 541 2497 738 2766 
Q 1047 3184 1428 3384 
Q 1809 3584 2291 3584 
Q 2888 3584 3255 3212 
Q 3622 2841 3622 2241 
Q 3622 1825 3500 1412 
Q 3378 1000 3181 728 
Q 2875 309 2494 109 
Q 2113 -91 1625 -91 
z
M 891 1344 
Q 891 869 1089 633 
Q 1288 397 1691 397 
Q 2269 397 2648 901 
Q 3028 1406 3028 2181 
Q 3028 2634 2825 2865 
Q 2622 3097 2228 3097 
Q 1903 3097 1650 2945 
Q 1397 2794 1197 2484 
Q 1050 2253 970 1956 
Q 891 1659 891 1344 
z
" transform="scale(0.015625)"/>
      <path id="DejaVuSans-Oblique-56" d="M 3200 3397 
L 3091 2853 
Q 2863 2978 2609 3040 
Q 2356 3103 2088 3103 
Q 1634 3103 1373 2948 
Q 1113 2794 1113 2528 
Q 1113 2219 1719 2053 
Q 1766 2041 1788 2034 
L 1972 1978 
Q 2547 1819 2739 1644 
Q 2931 1469 2931 1166 
Q 2931 609 2489 259 
Q 2047 -91 1331 -91 
Q 1053 -91 747 -37 
Q 441 16 72 128 
L 184 722 
Q 500 559 806 475 
Q 1113 391 1394 391 
Q 1816 391 2080 572 
Q 2344 753 2344 1031 
Q 2344 1331 1650 1516 
L 1591 1531 
L 1394 1581 
Q 956 1697 753 1886 
Q 550 2075 550 2369 
Q 550 2928 970 3256 
Q 1391 3584 2113 3584 
Q 2397 3584 2667 3537 
Q 2938 3491 3200 3397 
z
" transform="scale(0.015625)"/>
      <path id="DejaVuSans-Oblique-4f" d="M 1172 4863 
L 1747 4863 
L 800 0 
L 225 0 
L 1172 4863 
z
" transform="scale(0.015625)"/>
     </defs>
     <use xlink:href="#DejaVuSans-Oblique-46"/>
     <use xlink:href="#DejaVuSans-Oblique-5c" transform="translate(54.984375 0)"/>
     <use xlink:href="#DejaVuSans-Oblique-57" transform="translate(114.171875 0)"/>
     <use xlink:href="#DejaVuSans-Oblique-52" transform="translate(153.375 0)"/>
     <use xlink:href="#DejaVuSans-Oblique-56" transform="translate(214.5625 0)"/>
     <use xlink:href="#DejaVuSans-Oblique-52" transform="translate(266.65625 0)"/>
     <use xlink:href="#DejaVuSans-Oblique-4f" transform="translate(327.84375 0)"/>
    </g>
   </g>
   <g id="line2d_1">
    <path d="M 191.22733 303.068725 
L 200.039357 305.039524 
L 208.745559 306.809569 
L 217.355439 308.378565 
L 225.878504 309.746217 
L 234.324257 310.912229 
L 242.702202 311.876308 
L 251.021845 312.638157 
L 259.292689 313.197482 
L 267.524239 313.553987 
L 275.726 313.707377 
L 283.907476 313.657357 
L 292.078172 313.403632 
L 300.247592 312.945906 
L 308.42524 312.283885 
L 316.620621 311.417274 
L 324.84324 310.345777 
L 333.102601 309.069099 
L 341.408209 307.586945 
L 349.769567 305.89902 
L 358.196182 304.005029 
L 366.697556 301.904676 
L 375.283194 299.597667 
L 383.962602 297.083706 
" clip-path="url(#p5bd82306c9)" style="fill: none; stroke: #546e7a; stroke-opacity: 0.78; stroke-width: 0.95; stroke-linecap: round"/>
   </g>
   <g id="line2d_2">
    <path d="M 439.938342 296.855718 
L 450.818056 299.950979 
L 461.579207 302.787725 
L 472.233695 305.36627 
L 482.793419 307.686925 
L 493.27028 309.750005 
L 503.676177 311.555821 
L 514.023011 313.104685 
L 524.322681 314.396912 
L 534.587088 315.432813 
L 544.82813 316.212701 
L 555.05771 316.736889 
L 565.287725 317.00569 
L 575.530077 317.019415 
L 585.796665 316.778379 
L 596.099389 316.282893 
L 606.45015 315.53327 
L 616.860847 314.529823 
L 627.34338 313.272864 
L 637.909649 311.762707 
L 648.571554 309.999664 
L 659.340996 307.984047 
L 670.229874 305.71617 
L 681.250087 303.196344 
" clip-path="url(#p5bd82306c9)" style="fill: none; stroke: #546e7a; stroke-opacity: 0.78; stroke-width: 0.95; stroke-linecap: round"/>
   </g>
   <g id="line2d_3">
    <path d="M 425.407635 196.297216 
L 424.261183 199.364382 
L 423.189211 202.404176 
L 422.19131 205.420034 
L 421.267076 208.415394 
L 420.416101 211.393694 
L 419.637979 214.35837 
L 418.932302 217.312861 
L 418.298665 220.260604 
L 417.736661 223.205037 
L 417.245883 226.149596 
L 416.825924 229.097721 
L 416.476378 232.052847 
L 416.196839 235.018413 
L 415.9869 237.997856 
L 415.846154 240.994614 
L 415.774194 244.012124 
L 415.770614 247.053824 
L 415.835007 250.123152 
L 415.966968 253.223544 
L 416.166088 256.358438 
L 416.431962 259.531272 
L 416.764183 262.745484 
L 417.162344 266.004511 
" clip-path="url(#p5bd82306c9)" style="fill: none; stroke: #2e7d32; stroke-opacity: 0.78; stroke-width: 0.95; stroke-linecap: round"/>
   </g>
   <g id="patch_3">
    <path d="M 659.340996 307.984047 
Q 670.295542 305.590196 680.212442 303.423097 
" clip-path="url(#p5bd82306c9)" style="fill: none; opacity: 0.78; stroke: #546e7a; stroke-width: 0.95; stroke-linecap: round"/>
    <path d="M 677.394849 302.708136 
L 680.212442 303.423097 
L 677.949917 305.248195 
z
" clip-path="url(#p5bd82306c9)" style="fill: #546e7a; opacity: 0.78; stroke: #546e7a; stroke-width: 0.95; stroke-linecap: round"/>
   </g>
   <g id="patch_4">
    <path d="M 416.431962 259.531272 
Q 416.797153 262.767892 417.043258 264.949075 
" clip-path="url(#p5bd82306c9)" style="fill: none; opacity: 0.78; stroke: #2e7d32; stroke-width: 0.95; stroke-linecap: round"/>
    <path d="M 417.812714 262.849566 
L 417.043258 264.949075 
L 415.825324 263.073806 
z
" clip-path="url(#p5bd82306c9)" style="fill: #2e7d32; opacity: 0.78; stroke: #2e7d32; stroke-width: 0.95; stroke-linecap: round"/>
   </g>
   <g id="patch_5">
    <path d="M 141.84 253.969412 
C 154.943685 253.969412 167.512441 259.304418 176.778146 268.799457 
C 186.043851 278.294496 191.25 291.17434 191.25 304.602353 
C 191.25 318.030366 186.043851 330.91021 176.778146 340.405249 
C 167.512441 349.900288 154.943685 355.235294 141.84 355.235294 
C 128.736315 355.235294 116.167559 349.900288 106.901854 340.405249 
C 97.636149 330.91021 92.43 318.030366 92.43 304.602353 
C 92.43 291.17434 97.636149 278.294496 106.901854 268.799457 
C 116.167559 259.304418 128.736315 253.969412 141.84 253.969412 
z
" clip-path="url(#p5bd82306c9)" style="fill: #f5f5f5"/>
   </g>
   <g id="patch_6">
    <path d="M 734.76 253.969412 
C 747.863685 253.969412 760.432441 259.304418 769.698146 268.799457 
C 778.963851 278.294496 784.17 291.17434 784.17 304.602353 
C 784.17 318.030366 778.963851 330.91021 769.698146 340.405249 
C 760.432441 349.900288 747.863685 355.235294 734.76 355.235294 
C 721.656315 355.235294 709.087559 349.900288 699.821854 340.405249 
C 690.556149 330.91021 685.35 318.030366 685.35 304.602353 
C 685.35 291.17434 690.556149 278.294496 699.821854 268.799457 
C 709.087559 259.304418 721.656315 253.969412 734.76 253.969412 
z
" clip-path="url(#p5bd82306c9)" style="fill: #f5f5f5"/>
   </g>
   <g id="patch_7">
    <path d="M 92.43 253.969412 
L 191.25 253.969412 
L 191.25 355.235294 
L 92.43 355.235294 
z
" clip-path="url(#pd6822bb7bf)" style="fill: #f5f5f5"/>
   </g>
   <g id="patch_8">
    <path d="M 365.832 118.948235 
L 494.298 118.948235 
Q 504.18 118.948235 504.18 129.074824 
L 504.18 184.771059 
Q 504.18 194.897647 494.298 194.897647 
L 365.832 194.897647 
Q 355.95 194.897647 355.95 184.771059 
L 355.95 129.074824 
Q 355.95 118.948235 365.832 118.948235 
z
" clip-path="url(#p5bd82306c9)" style="fill: #f5f5f5"/>
   </g>
   <g id="patch_9">
    <path d="M 393.5016 270.847059 
L 433.6884 270.847059 
Q 438.3 270.847059 438.3 275.5728 
L 438.3 316.754259 
Q 438.3 321.48 433.6884 321.48 
L 393.5016 321.48 
Q 388.89 321.48 388.89 316.754259 
L 388.89 275.5728 
Q 388.89 270.847059 393.5016 270.847059 
z
" clip-path="url(#p5bd82306c9)" style="fill: #f5f5f5"/>
   </g>
   <g id="patch_10">
    <path d="M 685.35 253.969412 
L 784.17 253.969412 
L 784.17 355.235294 
L 685.35 355.235294 
z
" clip-path="url(#pa7c32e37f5)" style="fill: #f5f5f5"/>
   </g>
   <g id="patch_11">
    <path d="M 141.84 253.969412 
C 154.943685 253.969412 167.512441 259.304418 176.778146 268.799457 
C 186.043851 278.294496 191.25 291.17434 191.25 304.602353 
C 191.25 318.030366 186.043851 330.91021 176.778146 340.405249 
C 167.512441 349.900288 154.943685 355.235294 141.84 355.235294 
C 128.736315 355.235294 116.167559 349.900288 106.901854 340.405249 
C 97.636149 330.91021 92.43 318.030366 92.43 304.602353 
C 92.43 291.17434 97.636149 278.294496 106.901854 268.799457 
C 116.167559 259.304418 128.736315 253.969412 141.84 253.969412 
L 141.84 253.969412 
z
" clip-path="url(#p5bd82306c9)" style="fill: none; stroke: #37474f; stroke-width: 0.6; stroke-linejoin: miter"/>
   </g>
   <g id="patch_12">
    <path d="M 365.832 118.948235 
L 494.298 118.948235 
Q 504.18 118.948235 504.18 129.074824 
L 504.18 184.771059 
Q 504.18 194.897647 494.298 194.897647 
L 365.832 194.897647 
Q 355.95 194.897647 355.95 184.771059 
L 355.95 129.074824 
Q 355.95 118.948235 365.832 118.948235 
L 365.832 118.948235 
z
" clip-path="url(#p5bd82306c9)" style="fill: none; stroke: #37474f; stroke-width: 0.6; stroke-linejoin: miter"/>
   </g>
   <g id="patch_13">
    <path d="M 393.5016 270.847059 
L 433.6884 270.847059 
Q 438.3 270.847059 438.3 275.5728 
L 438.3 316.754259 
Q 438.3 321.48 433.6884 321.48 
L 393.5016 321.48 
Q 388.89 321.48 388.89 316.754259 
L 388.89 275.5728 
Q 388.89 270.847059 393.5016 270.847059 
L 393.5016 270.847059 
z
" clip-path="url(#p5bd82306c9)" style="fill: none; stroke: #37474f; stroke-width: 0.6; stroke-linejoin: miter"/>
   </g>
   <g id="patch_14">
    <path d="M 734.76 253.969412 
C 747.863685 253.969412 760.432441 259.304418 769.698146 268.799457 
C 778.963851 278.294496 784.17 291.17434 784.17 304.602353 
C 784.17 318.030366 778.963851 330.91021 769.698146 340.405249 
C 760.432441 349.900288 747.863685 355.235294 734.76 355.235294 
C 721.656315 355.235294 709.087559 349.900288 699.821854 340.405249 
C 690.556149 330.91021 685.35 318.030366 685.35 304.602353 
C 685.35 291.17434 690.556149 278.294496 699.821854 268.799457 
C 709.087559 259.304418 721.656315 253.969412 734.76 253.969412 
L 734.76 253.969412 
z
" clip-path="url(#p5bd82306c9)" style="fill: none; stroke: #37474f; stroke-width: 0.6; stroke-linejoin: miter"/>
   </g>
   <g id="text_2">
    <path d="M 128.992641 360.027533 
L 128.992641 363.088658 
L 129.636422 363.088658 
Q 130.451484 363.088658 130.829484 362.719939 
Q 131.207484 362.350376 131.207484 361.553876 
Q 131.207484 360.763283 130.829484 360.395408 
Q 130.451484 360.027533 129.636422 360.027533 
L 128.992641 360.027533 
z
M 128.460234 359.589626 
L 129.554578 359.589626 
Q 130.698703 359.589626 131.233641 360.065501 
Q 131.769422 360.541376 131.769422 361.553876 
Q 131.769422 362.572283 131.231109 363.049845 
Q 130.693641 363.526564 129.554578 363.526564 
L 128.460234 363.526564 
L 128.460234 359.589626 
z
M 132.352453 361.83147 
L 133.773328 361.83147 
L 133.773328 362.26347 
L 132.352453 362.26347 
L 132.352453 361.83147 
z
M 137.447859 362.964626 
L 137.447859 361.907408 
L 136.577953 361.907408 
L 136.577953 361.469501 
L 137.975203 361.469501 
L 137.975203 363.160376 
Q 137.667234 363.378908 137.295141 363.491126 
Q 136.923891 363.603345 136.502016 363.603345 
Q 135.578953 363.603345 135.057516 363.064189 
Q 134.536922 362.524189 134.536922 361.562314 
Q 134.536922 360.597064 135.057516 360.057908 
Q 135.578953 359.518751 136.502016 359.518751 
Q 136.886766 359.518751 137.233547 359.614095 
Q 137.580328 359.708595 137.873109 359.893376 
L 137.873109 360.460376 
Q 137.577797 360.209783 137.245359 360.08322 
Q 136.912922 359.956658 136.546734 359.956658 
Q 135.823641 359.956658 135.460828 360.35997 
Q 135.098859 360.763283 135.098859 361.562314 
Q 135.098859 362.358814 135.460828 362.762126 
Q 135.823641 363.165439 136.546734 363.165439 
Q 136.828547 363.165439 137.049609 363.116501 
Q 137.271516 363.067564 137.447859 362.964626 
z
M 138.926953 359.423408 
L 139.412109 359.423408 
L 139.412109 363.526564 
L 138.926953 363.526564 
L 138.926953 359.423408 
z
M 140.377359 362.361345 
L 140.377359 360.573439 
L 140.862516 360.573439 
L 140.862516 362.342783 
Q 140.862516 362.762126 141.025359 362.97222 
Q 141.189047 363.18147 141.516422 363.18147 
Q 141.908766 363.18147 142.136578 362.930876 
Q 142.365234 362.680283 142.365234 362.247439 
L 142.365234 360.573439 
L 142.850391 360.573439 
L 142.850391 363.526564 
L 142.365234 363.526564 
L 142.365234 363.072626 
Q 142.188891 363.341783 141.955172 363.472564 
Q 141.722297 363.603345 141.413484 363.603345 
Q 140.904703 363.603345 140.640609 363.286939 
Q 140.377359 362.970533 140.377359 362.361345 
z
M 141.598266 360.502564 
L 141.598266 360.502564 
z
M 145.974797 360.686501 
L 145.974797 361.140439 
Q 145.768922 361.026533 145.562203 360.970001 
Q 145.355484 360.91347 145.144547 360.91347 
Q 144.672047 360.91347 144.410484 361.213001 
Q 144.149766 361.511689 144.149766 362.052533 
Q 144.149766 362.593376 144.410484 362.892908 
Q 144.672047 363.191595 145.144547 363.191595 
Q 145.355484 363.191595 145.562203 363.135064 
Q 145.768922 363.078533 145.974797 362.964626 
L 145.974797 363.413501 
Q 145.771453 363.508001 145.553766 363.555251 
Q 145.336922 363.603345 145.091391 363.603345 
Q 144.423984 363.603345 144.030797 363.184001 
Q 143.638453 362.764658 143.638453 362.052533 
Q 143.638453 361.330283 144.035016 360.916845 
Q 144.432422 360.502564 145.123453 360.502564 
Q 145.347047 360.502564 145.560516 360.54897 
Q 145.773984 360.594533 145.974797 360.686501 
z
M 147.962672 360.91347 
Q 147.572859 360.91347 147.345891 361.218064 
Q 147.118922 361.522658 147.118922 362.052533 
Q 147.118922 362.582408 147.344203 362.887001 
Q 147.570328 363.191595 147.962672 363.191595 
Q 148.350797 363.191595 148.576922 362.886158 
Q 148.803891 362.579876 148.803891 362.052533 
Q 148.803891 361.52772 148.576922 361.220595 
Q 148.350797 360.91347 147.962672 360.91347 
z
M 147.962672 360.502564 
Q 148.595484 360.502564 148.956609 360.914314 
Q 149.318578 361.32522 149.318578 362.052533 
Q 149.318578 362.777314 148.956609 363.190751 
Q 148.595484 363.603345 147.962672 363.603345 
Q 147.327328 363.603345 146.967047 363.190751 
Q 146.607609 362.777314 146.607609 362.052533 
Q 146.607609 361.32522 146.967047 360.914314 
Q 147.327328 360.502564 147.962672 360.502564 
z
M 152.005078 360.660345 
L 152.005078 361.119345 
Q 151.800047 361.013876 151.578141 360.961564 
Q 151.357078 360.908408 151.119141 360.908408 
Q 150.758016 360.908408 150.577453 361.018939 
Q 150.396891 361.12947 150.396891 361.351376 
Q 150.396891 361.520126 150.525984 361.616314 
Q 150.655078 361.712501 151.045734 361.799408 
L 151.211953 361.836533 
Q 151.728328 361.947064 151.946016 362.14872 
Q 152.163703 362.350376 152.163703 362.711501 
Q 152.163703 363.123251 151.838016 363.36372 
Q 151.512328 363.603345 150.942797 363.603345 
Q 150.705703 363.603345 150.448359 363.556939 
Q 150.191016 363.510533 149.906672 363.418564 
L 149.906672 362.917376 
Q 150.175828 363.057439 150.436547 363.12747 
Q 150.697266 363.196658 150.953766 363.196658 
Q 151.296328 363.196658 151.480266 363.079376 
Q 151.665047 362.962095 151.665047 362.748626 
Q 151.665047 362.551189 151.531734 362.44572 
Q 151.399266 362.340251 150.947859 362.242376 
L 150.779109 362.20272 
Q 150.328547 362.10822 150.127734 361.911626 
Q 149.927766 361.715033 149.927766 361.37247 
Q 149.927766 360.955658 150.223078 360.729533 
Q 150.518391 360.502564 151.061766 360.502564 
Q 151.330078 360.502564 151.567172 360.54222 
Q 151.805109 360.581033 152.005078 360.660345 
z
M 155.461922 361.928501 
L 155.461922 362.165595 
L 153.231047 362.165595 
Q 153.263109 362.666783 153.533109 362.929189 
Q 153.803109 363.191595 154.285734 363.191595 
Q 154.565016 363.191595 154.827422 363.123251 
Q 155.089828 363.054908 155.348859 362.917376 
L 155.348859 363.376376 
Q 155.087297 363.486908 154.813078 363.545126 
Q 154.538859 363.603345 154.257047 363.603345 
Q 153.549984 363.603345 153.137391 363.192439 
Q 152.724797 362.780689 152.724797 362.078689 
Q 152.724797 361.353908 153.116297 360.928658 
Q 153.507797 360.502564 154.172672 360.502564 
Q 154.768359 360.502564 155.115141 360.88647 
Q 155.461922 361.269533 155.461922 361.928501 
z
M 154.976766 361.785908 
Q 154.971703 361.388501 154.754016 361.151408 
Q 154.536328 360.91347 154.177734 360.91347 
Q 153.771891 360.91347 153.528047 361.14297 
Q 153.284203 361.37247 153.247078 361.789283 
L 154.976766 361.785908 
z
" style="fill: #212121; stroke: #fafafa; stroke-width: 1.6"/>
    <path d="M 128.992641 360.027533 
L 128.992641 363.088658 
L 129.636422 363.088658 
Q 130.451484 363.088658 130.829484 362.719939 
Q 131.207484 362.350376 131.207484 361.553876 
Q 131.207484 360.763283 130.829484 360.395408 
Q 130.451484 360.027533 129.636422 360.027533 
L 128.992641 360.027533 
z
M 128.460234 359.589626 
L 129.554578 359.589626 
Q 130.698703 359.589626 131.233641 360.065501 
Q 131.769422 360.541376 131.769422 361.553876 
Q 131.769422 362.572283 131.231109 363.049845 
Q 130.693641 363.526564 129.554578 363.526564 
L 128.460234 363.526564 
L 128.460234 359.589626 
z
M 132.352453 361.83147 
L 133.773328 361.83147 
L 133.773328 362.26347 
L 132.352453 362.26347 
L 132.352453 361.83147 
z
M 137.447859 362.964626 
L 137.447859 361.907408 
L 136.577953 361.907408 
L 136.577953 361.469501 
L 137.975203 361.469501 
L 137.975203 363.160376 
Q 137.667234 363.378908 137.295141 363.491126 
Q 136.923891 363.603345 136.502016 363.603345 
Q 135.578953 363.603345 135.057516 363.064189 
Q 134.536922 362.524189 134.536922 361.562314 
Q 134.536922 360.597064 135.057516 360.057908 
Q 135.578953 359.518751 136.502016 359.518751 
Q 136.886766 359.518751 137.233547 359.614095 
Q 137.580328 359.708595 137.873109 359.893376 
L 137.873109 360.460376 
Q 137.577797 360.209783 137.245359 360.08322 
Q 136.912922 359.956658 136.546734 359.956658 
Q 135.823641 359.956658 135.460828 360.35997 
Q 135.098859 360.763283 135.098859 361.562314 
Q 135.098859 362.358814 135.460828 362.762126 
Q 135.823641 363.165439 136.546734 363.165439 
Q 136.828547 363.165439 137.049609 363.116501 
Q 137.271516 363.067564 137.447859 362.964626 
z
M 138.926953 359.423408 
L 139.412109 359.423408 
L 139.412109 363.526564 
L 138.926953 363.526564 
L 138.926953 359.423408 
z
M 140.377359 362.361345 
L 140.377359 360.573439 
L 140.862516 360.573439 
L 140.862516 362.342783 
Q 140.862516 362.762126 141.025359 362.97222 
Q 141.189047 363.18147 141.516422 363.18147 
Q 141.908766 363.18147 142.136578 362.930876 
Q 142.365234 362.680283 142.365234 362.247439 
L 142.365234 360.573439 
L 142.850391 360.573439 
L 142.850391 363.526564 
L 142.365234 363.526564 
L 142.365234 363.072626 
Q 142.188891 363.341783 141.955172 363.472564 
Q 141.722297 363.603345 141.413484 363.603345 
Q 140.904703 363.603345 140.640609 363.286939 
Q 140.377359 362.970533 140.377359 362.361345 
z
M 141.598266 360.502564 
L 141.598266 360.502564 
z
M 145.974797 360.686501 
L 145.974797 361.140439 
Q 145.768922 361.026533 145.562203 360.970001 
Q 145.355484 360.91347 145.144547 360.91347 
Q 144.672047 360.91347 144.410484 361.213001 
Q 144.149766 361.511689 144.149766 362.052533 
Q 144.149766 362.593376 144.410484 362.892908 
Q 144.672047 363.191595 145.144547 363.191595 
Q 145.355484 363.191595 145.562203 363.135064 
Q 145.768922 363.078533 145.974797 362.964626 
L 145.974797 363.413501 
Q 145.771453 363.508001 145.553766 363.555251 
Q 145.336922 363.603345 145.091391 363.603345 
Q 144.423984 363.603345 144.030797 363.184001 
Q 143.638453 362.764658 143.638453 362.052533 
Q 143.638453 361.330283 144.035016 360.916845 
Q 144.432422 360.502564 145.123453 360.502564 
Q 145.347047 360.502564 145.560516 360.54897 
Q 145.773984 360.594533 145.974797 360.686501 
z
M 147.962672 360.91347 
Q 147.572859 360.91347 147.345891 361.218064 
Q 147.118922 361.522658 147.118922 362.052533 
Q 147.118922 362.582408 147.344203 362.887001 
Q 147.570328 363.191595 147.962672 363.191595 
Q 148.350797 363.191595 148.576922 362.886158 
Q 148.803891 362.579876 148.803891 362.052533 
Q 148.803891 361.52772 148.576922 361.220595 
Q 148.350797 360.91347 147.962672 360.91347 
z
M 147.962672 360.502564 
Q 148.595484 360.502564 148.956609 360.914314 
Q 149.318578 361.32522 149.318578 362.052533 
Q 149.318578 362.777314 148.956609 363.190751 
Q 148.595484 363.603345 147.962672 363.603345 
Q 147.327328 363.603345 146.967047 363.190751 
Q 146.607609 362.777314 146.607609 362.052533 
Q 146.607609 361.32522 146.967047 360.914314 
Q 147.327328 360.502564 147.962672 360.502564 
z
M 152.005078 360.660345 
L 152.005078 361.119345 
Q 151.800047 361.013876 151.578141 360.961564 
Q 151.357078 360.908408 151.119141 360.908408 
Q 150.758016 360.908408 150.577453 361.018939 
Q 150.396891 361.12947 150.396891 361.351376 
Q 150.396891 361.520126 150.525984 361.616314 
Q 150.655078 361.712501 151.045734 361.799408 
L 151.211953 361.836533 
Q 151.728328 361.947064 151.946016 362.14872 
Q 152.163703 362.350376 152.163703 362.711501 
Q 152.163703 363.123251 151.838016 363.36372 
Q 151.512328 363.603345 150.942797 363.603345 
Q 150.705703 363.603345 150.448359 363.556939 
Q 150.191016 363.510533 149.906672 363.418564 
L 149.906672 362.917376 
Q 150.175828 363.057439 150.436547 363.12747 
Q 150.697266 363.196658 150.953766 363.196658 
Q 151.296328 363.196658 151.480266 363.079376 
Q 151.665047 362.962095 151.665047 362.748626 
Q 151.665047 362.551189 151.531734 362.44572 
Q 151.399266 362.340251 150.947859 362.242376 
L 150.779109 362.20272 
Q 150.328547 362.10822 150.127734 361.911626 
Q 149.927766 361.715033 149.927766 361.37247 
Q 149.927766 360.955658 150.223078 360.729533 
Q 150.518391 360.502564 151.061766 360.502564 
Q 151.330078 360.502564 151.567172 360.54222 
Q 151.805109 360.581033 152.005078 360.660345 
z
M 155.461922 361.928501 
L 155.461922 362.165595 
L 153.231047 362.165595 
Q 153.263109 362.666783 153.533109 362.929189 
Q 153.803109 363.191595 154.285734 363.191595 
Q 154.565016 363.191595 154.827422 363.123251 
Q 155.089828 363.054908 155.348859 362.917376 
L 155.348859 363.376376 
Q 155.087297 363.486908 154.813078 363.545126 
Q 154.538859 363.603345 154.257047 363.603345 
Q 153.549984 363.603345 153.137391 363.192439 
Q 152.724797 362.780689 152.724797 362.078689 
Q 152.724797 361.353908 153.116297 360.928658 
Q 153.507797 360.502564 154.172672 360.502564 
Q 154.768359 360.502564 155.115141 360.88647 
Q 155.461922 361.269533 155.461922 361.928501 
z
M 154.976766 361.785908 
Q 154.971703 361.388501 154.754016 361.151408 
Q 154.536328 360.91347 154.177734 360.91347 
Q 153.771891 360.91347 153.528047 361.14297 
Q 153.284203 361.37247 153.247078 361.789283 
L 154.976766 361.785908 
z
" style="fill: #212121"/>
   </g>
   <g id="text_3">
    <!-- HK1 -->
    <g style="fill: #212121" transform="translate(423.421797 159.292394) scale(0.065 -0.065)">
     <defs>
      <path id="DejaVuSans-2b" d="M 628 4666 
L 1259 4666 
L 1259 2753 
L 3553 2753 
L 3553 4666 
L 4184 4666 
L 4184 0 
L 3553 0 
L 3553 2222 
L 1259 2222 
L 1259 0 
L 628 0 
L 628 4666 
z
" transform="scale(0.015625)"/>
      <path id="DejaVuSans-2e" d="M 628 4666 
L 1259 4666 
L 1259 2694 
L 3353 4666 
L 4166 4666 
L 1850 2491 
L 4331 0 
L 3500 0 
L 1259 2247 
L 1259 0 
L 628 0 
L 628 4666 
z
" transform="scale(0.015625)"/>
      <path id="DejaVuSans-14" d="M 794 531 
L 1825 531 
L 1825 4091 
L 703 3866 
L 703 4441 
L 1819 4666 
L 2450 4666 
L 2450 531 
L 3481 531 
L 3481 0 
L 794 0 
L 794 531 
z
" transform="scale(0.015625)"/>
     </defs>
     <use xlink:href="#DejaVuSans-2b"/>
     <use xlink:href="#DejaVuSans-2e" transform="translate(75.203125 0)"/>
     <use xlink:href="#DejaVuSans-14" transform="translate(140.78125 0)"/>
    </g>
   </g>
   <g id="text_4">
    <path d="M 732.535875 362.916955 
L 732.535875 361.859736 
L 731.665969 361.859736 
L 731.665969 361.42183 
L 733.063219 361.42183 
L 733.063219 363.112705 
Q 732.75525 363.331236 732.383156 363.443455 
Q 732.011906 363.555673 731.590031 363.555673 
Q 730.666969 363.555673 730.145531 363.016517 
Q 729.624937 362.476517 729.624937 361.514642 
Q 729.624937 360.549392 730.145531 360.010236 
Q 730.666969 359.47108 731.590031 359.47108 
Q 731.974781 359.47108 732.321563 359.566423 
Q 732.668344 359.660923 732.961125 359.845705 
L 732.961125 360.412705 
Q 732.665813 360.162111 732.333375 360.035548 
Q 732.000937 359.908986 731.63475 359.908986 
Q 730.911656 359.908986 730.548844 360.312298 
Q 730.186875 360.715611 730.186875 361.514642 
Q 730.186875 362.311142 730.548844 362.714455 
Q 730.911656 363.117767 731.63475 363.117767 
Q 731.916563 363.117767 732.137625 363.06883 
Q 732.359531 363.019892 732.535875 362.916955 
z
M 735.289031 361.298642 
Q 734.930438 361.298642 734.720344 361.544173 
Q 734.511094 361.788861 734.511094 362.215798 
Q 734.511094 362.640205 734.720344 362.887423 
Q 734.930438 363.133798 735.289031 363.133798 
Q 735.647625 363.133798 735.856875 362.887423 
Q 736.066125 362.640205 736.066125 362.215798 
Q 736.066125 361.788861 735.856875 361.544173 
Q 735.647625 361.298642 735.289031 361.298642 
z
M 736.34625 359.628861 
L 736.34625 360.114017 
Q 736.145437 360.019517 735.94125 359.969736 
Q 735.737062 359.919111 735.53625 359.919111 
Q 735.008906 359.919111 734.730469 360.275173 
Q 734.452875 360.631236 734.413219 361.350955 
Q 734.568469 361.121455 734.803031 360.999111 
Q 735.038437 360.876767 735.32025 360.876767 
Q 735.913406 360.876767 736.257656 361.237048 
Q 736.601906 361.596486 736.601906 362.215798 
Q 736.601906 362.822455 736.243313 363.189486 
Q 735.884719 363.555673 735.289031 363.555673 
Q 734.605594 363.555673 734.244469 363.032548 
Q 733.883344 362.50858 733.883344 361.514642 
Q 733.883344 360.581455 734.326312 360.026267 
Q 734.769281 359.47108 735.515156 359.47108 
Q 735.715969 359.47108 735.920156 359.510736 
Q 736.124344 359.550392 736.34625 359.628861 
z
M 738.004219 359.979861 
L 738.004219 361.458955 
L 738.674156 361.458955 
Q 739.04625 361.458955 739.24875 361.26658 
Q 739.452094 361.074205 739.452094 360.718142 
Q 739.452094 360.364611 739.24875 360.172236 
Q 739.04625 359.979861 738.674156 359.979861 
L 738.004219 359.979861 
z
M 737.471813 359.541955 
L 738.674156 359.541955 
Q 739.3365 359.541955 739.674844 359.841486 
Q 740.014031 360.141017 740.014031 360.718142 
Q 740.014031 361.301173 739.674844 361.599017 
Q 739.3365 361.896861 738.674156 361.896861 
L 738.004219 361.896861 
L 738.004219 363.478892 
L 737.471813 363.478892 
L 737.471813 359.541955 
z
" style="fill: #212121; stroke: #fafafa; stroke-width: 1.6"/>
    <path d="M 732.535875 362.916955 
L 732.535875 361.859736 
L 731.665969 361.859736 
L 731.665969 361.42183 
L 733.063219 361.42183 
L 733.063219 363.112705 
Q 732.75525 363.331236 732.383156 363.443455 
Q 732.011906 363.555673 731.590031 363.555673 
Q 730.666969 363.555673 730.145531 363.016517 
Q 729.624937 362.476517 729.624937 361.514642 
Q 729.624937 360.549392 730.145531 360.010236 
Q 730.666969 359.47108 731.590031 359.47108 
Q 731.974781 359.47108 732.321563 359.566423 
Q 732.668344 359.660923 732.961125 359.845705 
L 732.961125 360.412705 
Q 732.665813 360.162111 732.333375 360.035548 
Q 732.000937 359.908986 731.63475 359.908986 
Q 730.911656 359.908986 730.548844 360.312298 
Q 730.186875 360.715611 730.186875 361.514642 
Q 730.186875 362.311142 730.548844 362.714455 
Q 730.911656 363.117767 731.63475 363.117767 
Q 731.916563 363.117767 732.137625 363.06883 
Q 732.359531 363.019892 732.535875 362.916955 
z
M 735.289031 361.298642 
Q 734.930438 361.298642 734.720344 361.544173 
Q 734.511094 361.788861 734.511094 362.215798 
Q 734.511094 362.640205 734.720344 362.887423 
Q 734.930438 363.133798 735.289031 363.133798 
Q 735.647625 363.133798 735.856875 362.887423 
Q 736.066125 362.640205 736.066125 362.215798 
Q 736.066125 361.788861 735.856875 361.544173 
Q 735.647625 361.298642 735.289031 361.298642 
z
M 736.34625 359.628861 
L 736.34625 360.114017 
Q 736.145437 360.019517 735.94125 359.969736 
Q 735.737062 359.919111 735.53625 359.919111 
Q 735.008906 359.919111 734.730469 360.275173 
Q 734.452875 360.631236 734.413219 361.350955 
Q 734.568469 361.121455 734.803031 360.999111 
Q 735.038437 360.876767 735.32025 360.876767 
Q 735.913406 360.876767 736.257656 361.237048 
Q 736.601906 361.596486 736.601906 362.215798 
Q 736.601906 362.822455 736.243313 363.189486 
Q 735.884719 363.555673 735.289031 363.555673 
Q 734.605594 363.555673 734.244469 363.032548 
Q 733.883344 362.50858 733.883344 361.514642 
Q 733.883344 360.581455 734.326312 360.026267 
Q 734.769281 359.47108 735.515156 359.47108 
Q 735.715969 359.47108 735.920156 359.510736 
Q 736.124344 359.550392 736.34625 359.628861 
z
M 738.004219 359.979861 
L 738.004219 361.458955 
L 738.674156 361.458955 
Q 739.04625 361.458955 739.24875 361.26658 
Q 739.452094 361.074205 739.452094 360.718142 
Q 739.452094 360.364611 739.24875 360.172236 
Q 739.04625 359.979861 738.674156 359.979861 
L 738.004219 359.979861 
z
M 737.471813 359.541955 
L 738.674156 359.541955 
Q 739.3365 359.541955 739.674844 359.841486 
Q 740.014031 360.141017 740.014031 360.718142 
Q 740.014031 361.301173 739.674844 361.599017 
Q 739.3365 361.896861 738.674156 361.896861 
L 738.004219 361.896861 
L 738.004219 363.478892 
L 737.471813 363.478892 
L 737.471813 359.541955 
z
" style="fill: #212121"/>
   </g>
  </g>
  <g id="text_5">
   <!-- Small SBGN structural fixture -->
   <g style="fill: #111111" transform="translate(420.737344 20.717812) scale(0.14 -0.14)">
    <defs>
     <path id="DejaVuSans-Bold-36" d="M 3834 4519 
L 3834 3531 
Q 3450 3703 3084 3790 
Q 2719 3878 2394 3878 
Q 1963 3878 1756 3759 
Q 1550 3641 1550 3391 
Q 1550 3203 1689 3098 
Q 1828 2994 2194 2919 
L 2706 2816 
Q 3484 2659 3812 2340 
Q 4141 2022 4141 1434 
Q 4141 663 3683 286 
Q 3225 -91 2284 -91 
Q 1841 -91 1394 -6 
Q 947 78 500 244 
L 500 1259 
Q 947 1022 1364 901 
Q 1781 781 2169 781 
Q 2563 781 2772 912 
Q 2981 1044 2981 1288 
Q 2981 1506 2839 1625 
Q 2697 1744 2272 1838 
L 1806 1941 
Q 1106 2091 782 2419 
Q 459 2747 459 3303 
Q 459 4000 909 4375 
Q 1359 4750 2203 4750 
Q 2588 4750 2994 4692 
Q 3400 4634 3834 4519 
z
" transform="scale(0.015625)"/>
     <path id="DejaVuSans-Bold-50" d="M 3781 2919 
Q 3994 3244 4286 3414 
Q 4578 3584 4928 3584 
Q 5531 3584 5847 3212 
Q 6163 2841 6163 2131 
L 6163 0 
L 5038 0 
L 5038 1825 
Q 5041 1866 5042 1909 
Q 5044 1953 5044 2034 
Q 5044 2406 4934 2573 
Q 4825 2741 4581 2741 
Q 4263 2741 4089 2478 
Q 3916 2216 3909 1719 
L 3909 0 
L 2784 0 
L 2784 1825 
Q 2784 2406 2684 2573 
Q 2584 2741 2328 2741 
Q 2006 2741 1831 2477 
Q 1656 2213 1656 1722 
L 1656 0 
L 531 0 
L 531 3500 
L 1656 3500 
L 1656 2988 
Q 1863 3284 2130 3434 
Q 2397 3584 2719 3584 
Q 3081 3584 3359 3409 
Q 3638 3234 3781 2919 
z
" transform="scale(0.015625)"/>
     <path id="DejaVuSans-Bold-44" d="M 2106 1575 
Q 1756 1575 1579 1456 
Q 1403 1338 1403 1106 
Q 1403 894 1545 773 
Q 1688 653 1941 653 
Q 2256 653 2472 879 
Q 2688 1106 2688 1447 
L 2688 1575 
L 2106 1575 
z
M 3816 1997 
L 3816 0 
L 2688 0 
L 2688 519 
Q 2463 200 2181 54 
Q 1900 -91 1497 -91 
Q 953 -91 614 226 
Q 275 544 275 1050 
Q 275 1666 698 1953 
Q 1122 2241 2028 2241 
L 2688 2241 
L 2688 2328 
Q 2688 2594 2478 2717 
Q 2269 2841 1825 2841 
Q 1466 2841 1156 2769 
Q 847 2697 581 2553 
L 581 3406 
Q 941 3494 1303 3539 
Q 1666 3584 2028 3584 
Q 2975 3584 3395 3211 
Q 3816 2838 3816 1997 
z
" transform="scale(0.015625)"/>
     <path id="DejaVuSans-Bold-4f" d="M 538 4863 
L 1656 4863 
L 1656 0 
L 538 0 
L 538 4863 
z
" transform="scale(0.015625)"/>
     <path id="DejaVuSans-Bold-3" transform="scale(0.015625)"/>
     <path id="DejaVuSans-Bold-25" d="M 2456 2859 
Q 2741 2859 2887 2984 
Q 3034 3109 3034 3353 
Q 3034 3594 2887 3720 
Q 2741 3847 2456 3847 
L 1791 3847 
L 1791 2859 
L 2456 2859 
z
M 2497 819 
Q 2859 819 3042 972 
Q 3225 1125 3225 1434 
Q 3225 1738 3044 1889 
Q 2863 2041 2497 2041 
L 1791 2041 
L 1791 819 
L 2497 819 
z
M 3616 2497 
Q 4003 2384 4215 2081 
Q 4428 1778 4428 1338 
Q 4428 663 3972 331 
Q 3516 0 2584 0 
L 588 0 
L 588 4666 
L 2394 4666 
Q 3366 4666 3802 4372 
Q 4238 4078 4238 3431 
Q 4238 3091 4078 2852 
Q 3919 2613 3616 2497 
z
" transform="scale(0.015625)"/>
     <path id="DejaVuSans-Bold-2a" d="M 4781 347 
Q 4331 128 3847 18 
Q 3363 -91 2847 -91 
Q 1681 -91 1000 561 
Q 319 1213 319 2328 
Q 319 3456 1012 4103 
Q 1706 4750 2913 4750 
Q 3378 4750 3804 4662 
Q 4231 4575 4609 4403 
L 4609 3438 
Q 4219 3659 3833 3768 
Q 3447 3878 3059 3878 
Q 2341 3878 1952 3476 
Q 1563 3075 1563 2328 
Q 1563 1588 1938 1184 
Q 2313 781 3003 781 
Q 3191 781 3352 804 
Q 3513 828 3641 878 
L 3641 1784 
L 2906 1784 
L 2906 2591 
L 4781 2591 
L 4781 347 
z
" transform="scale(0.015625)"/>
     <path id="DejaVuSans-Bold-31" d="M 588 4666 
L 1931 4666 
L 3628 1466 
L 3628 4666 
L 4769 4666 
L 4769 0 
L 3425 0 
L 1728 3200 
L 1728 0 
L 588 0 
L 588 4666 
z
" transform="scale(0.015625)"/>
     <path id="DejaVuSans-Bold-56" d="M 3272 3391 
L 3272 2541 
Q 2913 2691 2578 2766 
Q 2244 2841 1947 2841 
Q 1628 2841 1473 2761 
Q 1319 2681 1319 2516 
Q 1319 2381 1436 2309 
Q 1553 2238 1856 2203 
L 2053 2175 
Q 2913 2066 3209 1816 
Q 3506 1566 3506 1031 
Q 3506 472 3093 190 
Q 2681 -91 1863 -91 
Q 1516 -91 1145 -36 
Q 775 19 384 128 
L 384 978 
Q 719 816 1070 734 
Q 1422 653 1784 653 
Q 2113 653 2278 743 
Q 2444 834 2444 1013 
Q 2444 1163 2330 1236 
Q 2216 1309 1875 1350 
L 1678 1375 
Q 931 1469 631 1722 
Q 331 1975 331 2491 
Q 331 3047 712 3315 
Q 1094 3584 1881 3584 
Q 2191 3584 2531 3537 
Q 2872 3491 3272 3391 
z
" transform="scale(0.015625)"/>
     <path id="DejaVuSans-Bold-57" d="M 1759 4494 
L 1759 3500 
L 2913 3500 
L 2913 2700 
L 1759 2700 
L 1759 1216 
Q 1759 972 1856 886 
Q 1953 800 2241 800 
L 2816 800 
L 2816 0 
L 1856 0 
Q 1194 0 917 276 
Q 641 553 641 1216 
L 641 2700 
L 84 2700 
L 84 3500 
L 641 3500 
L 641 4494 
L 1759 4494 
z
" transform="scale(0.015625)"/>
     <path id="DejaVuSans-Bold-55" d="M 3138 2547 
Q 2991 2616 2845 2648 
Q 2700 2681 2553 2681 
Q 2122 2681 1889 2404 
Q 1656 2128 1656 1613 
L 1656 0 
L 538 0 
L 538 3500 
L 1656 3500 
L 1656 2925 
Q 1872 3269 2151 3426 
Q 2431 3584 2822 3584 
Q 2878 3584 2943 3579 
Q 3009 3575 3134 3559 
L 3138 2547 
z
" transform="scale(0.015625)"/>
     <path id="DejaVuSans-Bold-58" d="M 500 1363 
L 500 3500 
L 1625 3500 
L 1625 3150 
Q 1625 2866 1622 2436 
Q 1619 2006 1619 1863 
Q 1619 1441 1641 1255 
Q 1663 1069 1716 984 
Q 1784 875 1895 815 
Q 2006 756 2150 756 
Q 2500 756 2700 1025 
Q 2900 1294 2900 1772 
L 2900 3500 
L 4019 3500 
L 4019 0 
L 2900 0 
L 2900 506 
Q 2647 200 2364 54 
Q 2081 -91 1741 -91 
Q 1134 -91 817 281 
Q 500 653 500 1363 
z
" transform="scale(0.015625)"/>
     <path id="DejaVuSans-Bold-46" d="M 3366 3391 
L 3366 2478 
Q 3138 2634 2908 2709 
Q 2678 2784 2431 2784 
Q 1963 2784 1702 2511 
Q 1441 2238 1441 1747 
Q 1441 1256 1702 982 
Q 1963 709 2431 709 
Q 2694 709 2930 787 
Q 3166 866 3366 1019 
L 3366 103 
Q 3103 6 2833 -42 
Q 2563 -91 2291 -91 
Q 1344 -91 809 395 
Q 275 881 275 1747 
Q 275 2613 809 3098 
Q 1344 3584 2291 3584 
Q 2566 3584 2833 3536 
Q 3100 3488 3366 3391 
z
" transform="scale(0.015625)"/>
     <path id="DejaVuSans-Bold-13ab" d="M 3078 4863 
L 4206 4863 
L 4206 3950 
L 3078 3950 
L 3078 4863 
z
M 2847 4863 
L 2847 4128 
L 2228 4128 
Q 1994 4128 1903 4042 
Q 1813 3956 1813 3744 
L 1813 3500 
L 4206 3500 
L 4206 0 
L 3078 0 
L 3078 2700 
L 1813 2700 
L 1813 0 
L 684 0 
L 684 2700 
L 134 2700 
L 134 3500 
L 684 3500 
L 684 3744 
Q 684 4316 1003 4589 
Q 1322 4863 1991 4863 
L 2847 4863 
z
" transform="scale(0.015625)"/>
     <path id="DejaVuSans-Bold-5b" d="M 1422 1791 
L 159 3500 
L 1344 3500 
L 2059 2463 
L 2784 3500 
L 3969 3500 
L 2706 1797 
L 4031 0 
L 2847 0 
L 2059 1106 
L 1281 0 
L 97 0 
L 1422 1791 
z
" transform="scale(0.015625)"/>
     <path id="DejaVuSans-Bold-48" d="M 4031 1759 
L 4031 1441 
L 1416 1441 
Q 1456 1047 1700 850 
Q 1944 653 2381 653 
Q 2734 653 3104 758 
Q 3475 863 3866 1075 
L 3866 213 
Q 3469 63 3072 -14 
Q 2675 -91 2278 -91 
Q 1328 -91 801 392 
Q 275 875 275 1747 
Q 275 2603 792 3093 
Q 1309 3584 2216 3584 
Q 3041 3584 3536 3087 
Q 4031 2591 4031 1759 
z
M 2881 2131 
Q 2881 2450 2695 2645 
Q 2509 2841 2209 2841 
Q 1884 2841 1681 2658 
Q 1478 2475 1428 2131 
L 2881 2131 
z
" transform="scale(0.015625)"/>
    </defs>
    <use xlink:href="#DejaVuSans-Bold-36"/>
    <use xlink:href="#DejaVuSans-Bold-50" transform="translate(72.015625 0)"/>
    <use xlink:href="#DejaVuSans-Bold-44" transform="translate(176.21875 0)"/>
    <use xlink:href="#DejaVuSans-Bold-4f" transform="translate(243.703125 0)"/>
    <use xlink:href="#DejaVuSans-Bold-4f" transform="translate(277.984375 0)"/>
    <use xlink:href="#DejaVuSans-Bold-3" transform="translate(312.265625 0)"/>
    <use xlink:href="#DejaVuSans-Bold-36" transform="translate(347.078125 0)"/>
    <use xlink:href="#DejaVuSans-Bold-25" transform="translate(419.09375 0)"/>
    <use xlink:href="#DejaVuSans-Bold-2a" transform="translate(495.3125 0)"/>
    <use xlink:href="#DejaVuSans-Bold-31" transform="translate(577.390625 0)"/>
    <use xlink:href="#DejaVuSans-Bold-3" transform="translate(661.078125 0)"/>
    <use xlink:href="#DejaVuSans-Bold-56" transform="translate(695.890625 0)"/>
    <use xlink:href="#DejaVuSans-Bold-57" transform="translate(755.40625 0)"/>
    <use xlink:href="#DejaVuSans-Bold-55" transform="translate(803.203125 0)"/>
    <use xlink:href="#DejaVuSans-Bold-58" transform="translate(852.515625 0)"/>
    <use xlink:href="#DejaVuSans-Bold-46" transform="translate(923.703125 0)"/>
    <use xlink:href="#DejaVuSans-Bold-57" transform="translate(982.984375 0)"/>
    <use xlink:href="#DejaVuSans-Bold-58" transform="translate(1030.78125 0)"/>
    <use xlink:href="#DejaVuSans-Bold-55" transform="translate(1101.96875 0)"/>
    <use xlink:href="#DejaVuSans-Bold-44" transform="translate(1151.28125 0)"/>
    <use xlink:href="#DejaVuSans-Bold-4f" transform="translate(1218.765625 0)"/>
    <use xlink:href="#DejaVuSans-Bold-3" transform="translate(1253.046875 0)"/>
    <use xlink:href="#DejaVuSans-Bold-13ab" transform="translate(1287.859375 0)"/>
    <use xlink:href="#DejaVuSans-Bold-5b" transform="translate(1361.984375 0)"/>
    <use xlink:href="#DejaVuSans-Bold-57" transform="translate(1426.484375 0)"/>
    <use xlink:href="#DejaVuSans-Bold-58" transform="translate(1474.28125 0)"/>
    <use xlink:href="#DejaVuSans-Bold-55" transform="translate(1545.46875 0)"/>
    <use xlink:href="#DejaVuSans-Bold-48" transform="translate(1594.78125 0)"/>
   </g>
  </g>
  <g id="text_6">
   <!-- pathview-plus -->
   <g style="fill: #78909c" transform="translate(1023.652 607.5825) scale(0.064 -0.064)">
    <defs>
     <path id="DejaVuSans-Oblique-53" d="M 3175 2156 
Q 3175 2616 2975 2859 
Q 2775 3103 2400 3103 
Q 2144 3103 1911 2972 
Q 1678 2841 1497 2591 
Q 1319 2344 1212 1994 
Q 1106 1644 1106 1300 
Q 1106 863 1306 627 
Q 1506 391 1875 391 
Q 2147 391 2380 519 
Q 2613 647 2778 891 
Q 2956 1147 3065 1494 
Q 3175 1841 3175 2156 
z
M 1394 2969 
Q 1625 3272 1939 3428 
Q 2253 3584 2638 3584 
Q 3175 3584 3472 3232 
Q 3769 2881 3769 2247 
Q 3769 1728 3584 1258 
Q 3400 788 3053 416 
Q 2822 169 2531 39 
Q 2241 -91 1919 -91 
Q 1547 -91 1294 64 
Q 1041 219 916 525 
L 556 -1331 
L -19 -1331 
L 922 3500 
L 1497 3500 
L 1394 2969 
z
" transform="scale(0.015625)"/>
     <path id="DejaVuSans-Oblique-44" d="M 3438 1997 
L 3047 0 
L 2472 0 
L 2578 531 
Q 2325 219 2001 64 
Q 1678 -91 1281 -91 
Q 834 -91 548 182 
Q 263 456 263 884 
Q 263 1497 752 1853 
Q 1241 2209 2100 2209 
L 2900 2209 
L 2931 2363 
Q 2938 2388 2941 2417 
Q 2944 2447 2944 2509 
Q 2944 2788 2717 2942 
Q 2491 3097 2081 3097 
Q 1800 3097 1504 3025 
Q 1209 2953 897 2809 
L 997 3341 
Q 1322 3463 1633 3523 
Q 1944 3584 2234 3584 
Q 2853 3584 3176 3315 
Q 3500 3047 3500 2534 
Q 3500 2431 3484 2292 
Q 3469 2153 3438 1997 
z
M 2816 1759 
L 2241 1759 
Q 1534 1759 1195 1570 
Q 856 1381 856 984 
Q 856 709 1029 553 
Q 1203 397 1509 397 
Q 1978 397 2328 733 
Q 2678 1069 2791 1631 
L 2816 1759 
z
" transform="scale(0.015625)"/>
     <path id="DejaVuSans-Oblique-4b" d="M 3566 2113 
L 3156 0 
L 2578 0 
L 2988 2091 
Q 3016 2238 3031 2350 
Q 3047 2463 3047 2528 
Q 3047 2791 2881 2937 
Q 2716 3084 2419 3084 
Q 1956 3084 1617 2771 
Q 1278 2459 1178 1941 
L 800 0 
L 225 0 
L 1172 4863 
L 1747 4863 
L 1375 2950 
Q 1594 3244 1934 3414 
Q 2275 3584 2650 3584 
Q 3113 3584 3367 3334 
Q 3622 3084 3622 2631 
Q 3622 2519 3608 2391 
Q 3594 2263 3566 2113 
z
" transform="scale(0.015625)"/>
     <path id="DejaVuSans-Oblique-59" d="M 459 3500 
L 1069 3500 
L 1581 525 
L 3256 3500 
L 3866 3500 
L 1875 0 
L 1100 0 
L 459 3500 
z
" transform="scale(0.015625)"/>
     <path id="DejaVuSans-Oblique-4c" d="M 1172 4863 
L 1747 4863 
L 1606 4134 
L 1031 4134 
L 1172 4863 
z
M 909 3500 
L 1484 3500 
L 800 0 
L 225 0 
L 909 3500 
z
" transform="scale(0.015625)"/>
     <path id="DejaVuSans-Oblique-48" d="M 3078 2063 
Q 3088 2113 3092 2166 
Q 3097 2219 3097 2272 
Q 3097 2653 2873 2875 
Q 2650 3097 2266 3097 
Q 1838 3097 1509 2826 
Q 1181 2556 1013 2059 
L 3078 2063 
z
M 3578 1613 
L 903 1613 
Q 884 1494 878 1425 
Q 872 1356 872 1306 
Q 872 872 1139 634 
Q 1406 397 1894 397 
Q 2269 397 2603 481 
Q 2938 566 3225 728 
L 3116 159 
Q 2806 34 2476 -28 
Q 2147 -91 1806 -91 
Q 1078 -91 686 257 
Q 294 606 294 1247 
Q 294 1794 489 2264 
Q 684 2734 1063 3103 
Q 1306 3334 1642 3459 
Q 1978 3584 2356 3584 
Q 2950 3584 3301 3228 
Q 3653 2872 3653 2272 
Q 3653 2128 3634 1964 
Q 3616 1800 3578 1613 
z
" transform="scale(0.015625)"/>
     <path id="DejaVuSans-Oblique-5a" d="M 544 3500 
L 1113 3500 
L 1259 684 
L 2566 3500 
L 3231 3500 
L 3425 684 
L 4666 3500 
L 5241 3500 
L 3641 0 
L 2969 0 
L 2797 2900 
L 1459 0 
L 781 0 
L 544 3500 
z
" transform="scale(0.015625)"/>
     <path id="DejaVuSans-Oblique-10" d="M 391 2009 
L 2075 2009 
L 1978 1497 
L 288 1497 
L 391 2009 
z
" transform="scale(0.015625)"/>
     <path id="DejaVuSans-Oblique-58" d="M 428 1388 
L 838 3500 
L 1416 3500 
L 1006 1409 
Q 975 1256 961 1147 
Q 947 1038 947 966 
Q 947 700 1109 554 
Q 1272 409 1569 409 
Q 2031 409 2368 721 
Q 2706 1034 2809 1563 
L 3194 3500 
L 3769 3500 
L 3091 0 
L 2516 0 
L 2631 550 
Q 2388 244 2052 76 
Q 1716 -91 1338 -91 
Q 878 -91 622 161 
Q 366 413 366 863 
Q 366 956 381 1097 
Q 397 1238 428 1388 
z
" transform="scale(0.015625)"/>
    </defs>
    <use xlink:href="#DejaVuSans-Oblique-53"/>
    <use xlink:href="#DejaVuSans-Oblique-44" transform="translate(63.484375 0)"/>
    <use xlink:href="#DejaVuSans-Oblique-57" transform="translate(124.765625 0)"/>
    <use xlink:href="#DejaVuSans-Oblique-4b" transform="translate(163.96875 0)"/>
    <use xlink:href="#DejaVuSans-Oblique-59" transform="translate(227.34375 0)"/>
    <use xlink:href="#DejaVuSans-Oblique-4c" transform="translate(286.53125 0)"/>
    <use xlink:href="#DejaVuSans-Oblique-48" transform="translate(314.3125 0)"/>
    <use xlink:href="#DejaVuSans-Oblique-5a" transform="translate(375.84375 0)"/>
    <use xlink:href="#DejaVuSans-Oblique-10" transform="translate(457.625 0)"/>
    <use xlink:href="#DejaVuSans-Oblique-53" transform="translate(493.703125 0)"/>
    <use xlink:href="#DejaVuSans-Oblique-4f" transform="translate(557.1875 0)"/>
    <use xlink:href="#DejaVuSans-Oblique-58" transform="translate(584.96875 0)"/>
    <use xlink:href="#DejaVuSans-Oblique-56" transform="translate(648.34375 0)"/>
   </g>
  </g>
 </g>
 <defs>
  <clipPath id="p5bd82306c9">
   <rect x="10.08" y="34.56" width="1054.08" height="573.84"/>
  </clipPath>
  <clipPath id="pd6822bb7bf">
   <path d="M 141.84 253.969412 
C 154.943685 253.969412 167.512441 259.304418 176.778146 268.799457 
C 186.043851 278.294496 191.25 291.17434 191.25 304.602353 
C 191.25 318.030366 186.043851 330.91021 176.778146 340.405249 
C 167.512441 349.900288 154.943685 355.235294 141.84 355.235294 
C 128.736315 355.235294 116.167559 349.900288 106.901854 340.405249 
C 97.636149 330.91021 92.43 318.030366 92.43 304.602353 
C 92.43 291.17434 97.636149 278.294496 106.901854 268.799457 
C 116.167559 259.304418 128.736315 253.969412 141.84 253.969412 
z
"/>
  </clipPath>
  <clipPath id="pa7c32e37f5">
   <path d="M 734.76 253.969412 
C 747.863685 253.969412 760.432441 259.304418 769.698146 268.799457 
C 778.963851 278.294496 784.17 291.17434 784.17 304.602353 
C 784.17 318.030366 778.963851 330.91021 769.698146 340.405249 
C 760.432441 349.900288 747.863685 355.235294 734.76 355.235294 
C 721.656315 355.235294 709.087559 349.900288 699.821854 340.405249 
C 690.556149 330.91021 685.35 318.030366 685.35 304.602353 
C 685.35 291.17434 690.556149 278.294496 699.821854 268.799457 
C 709.087559 259.304418 721.656315 253.969412 734.76 253.969412 
z
"/>
  </clipPath>
 </defs>
</svg>
